<svg xmlns="http://www.w3.org/2000/svg" version="1.1" xmlns:xlink="http://www.w3.org/1999/xlink" xmlns:svgjs="http://svgjs.dev/svgjs" width="1000" height="1000" viewBox="0 0 1000 1000"><rect width="1000" height="1000" fill="#ffffff"></rect><g transform="matrix(0.7,0,0,0.7,149.57575878348712,451.35365313655603)"><svg viewBox="0 0 396 55" data-background-color="#ffffff" preserveAspectRatio="xMidYMid meet" height="138" width="1000" xmlns="http://www.w3.org/2000/svg" xmlns:xlink="http://www.w3.org/1999/xlink"><g id="tight-bounds" transform="matrix(1,0,0,1,0.2399993167701382,0.1971954191451175)"><svg viewBox="0 0 395.52 54.60560916170975" height="54.60560916170975" width="395.52"><g><svg viewBox="0 0 519.4567498382193 71.71635380784242" height="54.60560916170975" width="395.52"><g><rect width="4.679779158949608" height="62.271797807099055" x="107.0062398966791" y="4.722278000371684" fill="#6528f7" opacity="1" stroke-width="0" stroke="transparent" fill-opacity="1" class="rect-o-0" data-fill-palette-color="primary" rx="1%" id="o-0" data-palette-color="#6528f7"></rect></g><g transform="matrix(1,0,0,1,123.93674983821931,9.911594484296604)"><svg viewBox="0 0 395.52 51.893164839249216" height="51.893164839249216" width="395.52"><g id="textblocktransform"><svg viewBox="0 0 395.52 51.893164839249216" height="51.893164839249216" width="395.52" id="textblock"><g><svg viewBox="0 0 395.52 51.893164839249216" height="51.893164839249216" width="395.52"><g transform="matrix(1,0,0,1,0,0)"><svg width="395.52" viewBox="1.25 -34.79999923706055 269.0299987792969 35.29999923706055" height="51.893164839249216" data-palette-color="#6528f7"><path d="M1.25-34.3L27.65-34.3 27.65-29.85 16.9-29.85 16.9 0 12 0 12-29.85 1.25-29.85 1.25-34.3ZM42.5-34.3L47.9-34.3 61.3 0 56 0 53.1-7.45 36.7-7.45 33.85 0 29.1 0 42.5-34.3ZM51.4-11.9L45.1-28.4 44.8-28.4 38.45-11.9 51.4-11.9ZM77.2-34.8Q82.84-34.8 86.07-32.3 89.3-29.8 89.3-25.2L89.3-25.2 89.3-24.6 84.4-24.6 84.4-25.35Q84.4-27.75 82.45-29.05 80.5-30.35 77.3-30.35L77.3-30.35Q73.75-30.35 71.77-29.18 69.8-28 69.8-25.8L69.8-25.8Q69.8-24.15 70.92-23.1 72.05-22.05 73.72-21.45 75.4-20.85 78.34-20.1L78.34-20.1Q82.15-19.1 84.5-18.15 86.84-17.2 88.52-15.3 90.2-13.4 90.2-10.25L90.2-10.25Q90.2-4.65 86.77-2.08 83.34 0.5 77.15 0.5L77.15 0.5Q70.95 0.5 67.52-2.13 64.09-4.75 64.09-9.75L64.09-9.75 64.15-10.75 69.05-10.75 69-9.7Q69-6.8 71.17-5.38 73.34-3.95 77.2-3.95L77.2-3.95Q80.95-3.95 83.12-5.33 85.3-6.7 85.3-9.1L85.3-9.1Q85.3-11 84.12-12.18 82.95-13.35 81.17-14 79.4-14.65 76.34-15.45L76.34-15.45Q72.59-16.45 70.34-17.35 68.09-18.25 66.5-20.13 64.9-22 64.9-25.05L64.9-25.05Q64.9-30 68.25-32.4 71.59-34.8 77.2-34.8L77.2-34.8ZM117.24-34.3L122.89-34.3 110.29-19.15 123.29 0 117.59 0 107.19-15.4 102.34-10.3 102.34 0 97.44 0 97.44-34.3 102.34-34.3 102.34-16.45 117.24-34.3ZM149.64-34.3L154.09-34.3 154.09 0 149.94 0 133.19-25.1 133.04-25.05 133.04 0 128.59 0 128.59-34.3 132.89-34.3 149.49-9.5 149.64-9.55 149.64-34.3ZM161.34-34.3L174.24-34.3 174.24-29.85 170.24-29.85 170.24-4.45 174.24-4.45 174.24 0 161.34 0 161.34-4.45 165.34-4.45 165.34-29.85 161.34-29.85 161.34-34.3ZM202.53-34.3L206.98-34.3 206.98 0 202.83 0 186.08-25.1 185.94-25.05 185.94 0 181.48 0 181.48-34.3 185.78-34.3 202.38-9.5 202.53-9.55 202.53-34.3ZM233.53-34.3L233.53-9.35Q233.53-4.8 230.73-2.15 227.93 0.5 223.38 0.5L223.38 0.5 222.93 0.5Q218.38 0.5 215.71-2.05 213.03-4.6 213.03-9.35L213.03-9.35 213.03-10.4 217.93-10.4 217.93-9.05Q217.93-6.8 219.46-5.38 220.98-3.95 223.33-3.95L223.33-3.95Q225.68-3.95 227.16-5.35 228.63-6.75 228.63-9.05L228.63-9.05 228.63-34.3 233.53-34.3ZM251.48-34.3L256.88-34.3 270.28 0 264.98 0 262.08-7.45 245.68-7.45 242.83 0 238.08 0 251.48-34.3ZM260.38-11.9L254.08-28.4 253.78-28.4 247.43-11.9 260.38-11.9Z" opacity="1" transform="matrix(1,0,0,1,0,0)" fill="#6528f7" class="wordmark-text-0" data-fill-palette-color="primary" id="text-0"></path></svg></g></svg></g></svg></g></svg></g><g><svg viewBox="0 0 94.75550911408851 71.71635380784242" height="71.71635380784242" width="94.75550911408851"><g><svg version="1.1" xmlns="http://www.w3.org/2000/svg" xmlns:xlink="http://www.w3.org/1999/xlink" x="0" y="0" viewBox="0.00013375282287597656 0.00013375282287597656 100.000244140625 75.68586730957031" enable-background="new 0 0 100 75.687" xml:space="preserve" width="94.75550911408851" height="71.71635380784242" class="icon-icon-0" data-fill-palette-color="accent" id="icon-0"><circle fill="#6528f7" cx="28.697" cy="50.591" r="3.6" data-fill-palette-color="accent"></circle><circle fill="#6528f7" cx="65.346" cy="50.591" r="3.6" data-fill-palette-color="accent"></circle><path fill="#6528f7" d="M17.146 13.544L8.697 2.039C7.183-0.124 4.201-0.649 2.039 0.865-0.124 2.379-0.649 5.36 0.865 7.523l9.437 12.914C12.27 17.917 14.567 15.604 17.146 13.544z" data-fill-palette-color="accent"></path><path fill="#6528f7" d="M97.537 41.828l-3.662-1.084 4.875-2.718c1.175-0.656 1.598-2.14 0.94-3.315-0.653-1.175-2.138-1.597-3.313-0.94l-7.563 4.217c-0.143 0.08-0.271 0.172-0.393 0.273C85.566 20.798 68.44 7.246 47.419 6.434V6.399c-0.134 0.002-0.265 0.014-0.397 0.018-0.132-0.003-0.263-0.015-0.396-0.018v0.035C23.573 7.325 5.197 23.532 5.197 43.421c0 19.886 18.376 31.338 41.43 32.229v0.036c0.132-0.005 0.264-0.014 0.396-0.019 0.132 0.005 0.263 0.014 0.397 0.019V75.65c22.698-0.876 40.847-12 41.401-31.325l7.332 2.174c1.288 0.382 2.647-0.353 3.028-1.642C99.562 43.566 98.827 42.213 97.537 41.828zM58.499 63.835c-5.814-2.982-6.33-8.374-11.079-9.375h-0.791c-4.751 1.001-5.265 6.393-11.08 9.375-7.766 3.983-19.768 0-19.062-11.952 0.553-9.351 13.232-18.667 30.537-19.093 17.307 0.427 29.985 9.743 30.539 19.093C78.268 63.835 66.267 67.818 58.499 63.835z" data-fill-palette-color="accent"></path></svg></g></svg></g></svg></g><defs></defs></svg><rect width="395.52" height="54.60560916170975" fill="none" stroke="none" visibility="hidden"></rect></g></svg></g></svg>